<svg xmlns="http://www.w3.org/2000/svg" xmlns:xlink="http://www.w3.org/1999/xlink" rel="stylesheet" href="style.css" type="text/css" width="300" height="154" viewBox="0 0 682 284">
  <defs>
    <clipPath id="clip-path">
      <rect id="Rectangle_5" data-name="Rectangle 5" width="682" height="284" transform="translate(592 226)" fill="none"/>
    </clipPath>
  </defs>
  <g id="logo" data-name="logo" transform="translate(-592 -226)" clip-path="url(#clip-path)">
    <g id="logo">
      <g id="icon">
        <path id="Path_1" data-name="Path 1" d="M450.718,183.736H473.4v.6h-22.68Zm0,1.2H473.4v.6h-22.68Zm-1.56,1.08h25.8v1.08h-25.8Zm-.36,1.8h26.52v3.36H448.8Zm.12-91.08H475.2v2.04h-26.28Zm1.8,84.6H473.4v1.44h-22.68Z" transform="translate(592 234)" fill-rule="evenodd"/>
        <path id="Path_2" data-name="Path 2" d="M472.558,99.386h-21.38c0,1.32,4.69,2.52,10.69,2.52C468,101.906,472.558,100.706,472.558,99.386Z" transform="translate(592 234)"/>
        <path id="Path_3" data-name="Path 3" d="M455.628,109.186h1.44v72.24h-1.44v-72.24Zm3.72,0h1.44v72.24h-1.44v-72.24Zm3.96,0h1.33v72.24h-1.33v-72.24Zm3.61,0h1.44v72.24h-1.44v-72.24Zm-12.85-1.79-.12.24-.24.12c0,.24-.13.24-.13.48l-.24.36-.36.36v72.6h-1.2v.84h20.65v-.84h-1.2v-72.84l-.36-.36-.24-.36c0-.24-.12-.24-.12-.36v-.24l-.24-.12-.24-.24v-.24a4.917,4.917,0,0,1-.36-1.55,2.984,2.984,0,0,1,1.2-2.51l.36-.12h-14.41a2.179,2.179,0,0,1-1.32-.24h-.84l-1.09-.24.37.24a3.247,3.247,0,0,1,1.08,2.51,2.124,2.124,0,0,1-.36,1.31Z" transform="translate(592 234)"/>
        <path id="Path_4" data-name="Path 4" d="M397.628,99.506v-22.1s21.85-13.34,44.55-14.3l10.93,19.94s-35.78,4.44-51.04,9.73l-4.44,6.73Z" transform="translate(592 234)"/>
        <path id="Path_5" data-name="Path 5" d="M424.168,91.216l34.58-5.65-7.57-13.33,6.85,1.2,16.58,21.26c-.24,0-29.78-1.92-50.44-3.48Z" transform="translate(592 234)"/>
        <path id="Path_6" data-name="Path 6" d="M393.9,94.7v4.81s-17.89-8.77-24.14-9.13-52.84,4.32-52.84,4.32l14.89-20.06s3.85-.6,8.77-1.32l-9.37,14.89s30.98-2.52,35.07-2.28S393.9,94.7,393.9,94.7Z" transform="translate(592 234)"/>
        <path id="Path_7" data-name="Path 7" d="M346.228,70.316l-7.81,14.3s24.14-2.41,28.22-2.04c4.08.48,27.5,8.17,27.5,8.17V77.766s-15.98-7.81-26.18-8.41C361.238,69.116,346.228,70.316,346.228,70.316Z" transform="translate(592 234)"/>
        <path id="Path_8" data-name="Path 8" d="M391.978,120.646v-3.37a1.666,1.666,0,0,0-.6-1.2,4.46,4.46,0,0,1-1.92-5.17,5,5,0,0,1,3.84-4.08,5.142,5.142,0,0,1,6.25,3.84,5.391,5.391,0,0,1-1.68,5.29,1.351,1.351,0,0,0-.84,1.32c0,.6.24,1.57-.24,1.93-.36.48-1.08.48-1.68.48l-3.13.96Z" transform="translate(592 234)"/>
        <path id="Path_9" data-name="Path 9" d="M318.838,183.736h22.68v.6h-22.68Zm0,1.2h22.68v.6h-22.68Zm-1.56,1.08h25.8v1.08h-25.8Zm-.36,1.8h26.52v3.36h-26.52Zm.24-91.08h26.28v2.04h-26.28Zm1.68,84.6h22.68v1.44h-22.68Z" transform="translate(592 234)" fill-rule="evenodd"/>
        <path id="Path_10" data-name="Path 10" d="M340.938,99.386h-21.38c0,1.32,4.56,2.52,10.69,2.52C336.258,101.906,340.938,100.706,340.938,99.386Z" transform="translate(592 234)"/>
        <path id="Path_11" data-name="Path 11" d="M324.008,109.186h1.33v72.24h-1.33v-72.24Zm3.72,0h1.32v72.24h-1.32v-72.24Zm3.6,0h1.44v72.24h-1.44v-72.24Zm3.97,0h1.32v72.24H335.3v-72.24Zm-12.85-1.79-.24.24-.12.12c0,.24-.24.24-.24.48l-.24.36-.36.36v72.6h-1.2v.84H340.7v-.84h-1.08v-72.84l-.48-.36-.12-.36c0-.24-.24-.24-.24-.36v-.24l-.24-.12-.12-.24v-.24a2.964,2.964,0,0,1-.36-1.55,3.233,3.233,0,0,1,1.08-2.51l.48-.12h-14.65a2.212,2.212,0,0,1-1.33-.24h-.84l-1.2-.24.48.24a3.247,3.247,0,0,1,1.08,2.51,2.124,2.124,0,0,1-.36,1.31Z" transform="translate(592 234)"/>
        <path id="Path_12" data-name="Path 12" d="M345.718,183.736H368.4v.6h-22.68Zm0,1.2H368.4v.6h-22.68Zm-1.8,1.08h25.8v1.08h-25.8Zm-.12,1.8h26.52v3.36H343.8Zm0-91.08h26.28v2.04H343.8Zm1.92,84.6H368.4v1.44h-22.68Z" transform="translate(592 234)" fill-rule="evenodd"/>
        <path id="Path_13" data-name="Path 13" d="M367.608,99.386h-21.38c0,1.32,4.8,2.52,10.69,2.52S367.608,100.706,367.608,99.386Z" transform="translate(592 234)"/>
        <path id="Path_14" data-name="Path 14" d="M350.668,108.746h1.32v72.67h-1.32v-72.67Zm3.73,0h1.32v72.67H354.4v-72.67Zm3.84,0h1.44v72.67h-1.44v-72.67Zm3.72,0h1.32v72.67h-1.32v-72.67Zm-12.85-1.8h0l-.24.36c0,.24-.12.24-.12.48l-.24.36-.72.36v73.03h-1.2v.84h20.65v-.84h-1.2v-73.27l-.36-.36-.24-.36-.12-.36-.24-.24v.24l-.24-.24v-.12a7.328,7.328,0,0,1-.36-1.56,3.108,3.108,0,0,1,1.2-2.65l.36-.12h-14.42a2.179,2.179,0,0,1-1.32-.24h-.84l-1.08-.12.36.12a3.382,3.382,0,0,1,1.2,2.53,2.94,2.94,0,0,1-.48,1.44l-.35.72Z" transform="translate(592 234)"/>
        <path id="Path_15" data-name="Path 15" d="M424.078,183.736h22.68v.6h-22.68Zm0,1.2h22.68v.6h-22.68Zm-1.68,1.08h25.8v1.08H422.4Zm-.24,1.8h26.52v3.36h-26.52Zm0-91.08h26.28v2.04h-26.28Zm1.92,84.6h22.68v1.44h-22.68Z" transform="translate(592 234)" fill-rule="evenodd"/>
        <path id="Path_16" data-name="Path 16" d="M445.908,99.386h-21.38c0,1.32,4.68,2.52,10.69,2.52S445.908,100.706,445.908,99.386Z" transform="translate(592 234)"/>
        <path id="Path_17" data-name="Path 17" d="M428.968,108.966h1.32v72.46h-1.32v-72.46Zm3.72,0h1.33v72.46h-1.33v-72.46Zm3.85,0h1.44v72.46h-1.44v-72.46Zm3.72,0h1.44v72.46h-1.44v-72.46Zm-12.85-1.79h0l-.12.36c0,.24-.24.24-.24.48,0,.12-.24.12-.24.36l-.36.36v72.82h-1.2v.84H445.9v-.84h-1.08V108.5l-.48-.36c-.12,0-.12-.12-.12-.36s-.24-.24-.24-.36v-.24l-.24-.12v-.48a4.7,4.7,0,0,1-.37-1.56,3.024,3.024,0,0,1,1.21-2.52l.36-.12h-14.78a2.179,2.179,0,0,1-1.32-.24h-1.2l-1.2-.24.36.24a3.015,3.015,0,0,1,1.2,2.52,3.48,3.48,0,0,1-.36,1.32l-.23,1.2Z" transform="translate(592 234)"/>
        <rect id="Rectangle_1" data-name="Rectangle 1" width="169.56" height="5.52" transform="translate(902.917 425.896)"/>
        <path id="Path_18" data-name="Path 18" d="M291.1,163.9c17.65,61.74,82.02,97.42,143.51,79.64a114.571,114.571,0,0,0,55.12-34.84,133.765,133.765,0,0,1-185.66,35.68c-60.89-41.33-76.85-124.69-35.54-185.71,41.43-61.14,124.65-76.99,185.54-35.68a141.433,141.433,0,0,1,23.18,19.82c-49-41.2-122.25-34.6-163.57,14.42A116.67,116.67,0,0,0,291.1,163.9Z" transform="translate(592 234)" fill="#ed1c24"/>
        <path id="Path_19" data-name="Path 19" d="M394.268,189.356a2.063,2.063,0,0,1-.12-.96,25.755,25.755,0,0,0-.25-4.32,1.589,1.589,0,0,1,1.21-1.69v2.77a14.745,14.745,0,0,1-.24,3.24c0,.36-.12.6-.12.96h-.48Z" transform="translate(592 234)"/>
        <path id="Path_20" data-name="Path 20" d="M401.348,122.326a1.934,1.934,0,0,0,2.65.6,1.734,1.734,0,0,0-2.29-.72c-.24,0-.24.12-.36.12Zm7.2,2.52a14.032,14.032,0,0,1-10.57,1.21c-.72-.24-1.56-.36-2.28-.61-3.13-.96-9.37,1.57-10.69,4.93a16.643,16.643,0,0,0-1.09,3.13,4.206,4.206,0,0,0,2.41,3.84,13.321,13.321,0,0,0,4.68,1.92l.72.24v4.69a23.2,23.2,0,0,1-9.73-4.08,8.34,8.34,0,0,1-1.32-11.17,13.875,13.875,0,0,1,5.65-4.81,39.325,39.325,0,0,1,10.93-3.96,10.891,10.891,0,0,1,9.85,3,11.641,11.641,0,0,0,1.44,1.67Z" transform="translate(592 234)" fill="#239e46"/>
        <path id="Path_21" data-name="Path 21" d="M397.028,141.306c3.48,1.32,6.84,2.52,9.01,5.4a7.56,7.56,0,0,1-1.56,10.33,1.082,1.082,0,0,1-.61.36,55.219,55.219,0,0,1-7.8,3c-1.2.36-2.29.72-3.49,1.08a12.05,12.05,0,0,0-1.56.97,3.312,3.312,0,0,0-.84,4.68c.24.24.24.48.48.48.48.48,1.32,1.08,1.92,1.57a1.026,1.026,0,0,1,.36.72v1.92a8.238,8.238,0,0,1-6.6-6.25,6.545,6.545,0,0,1,2.28-5.65,12.145,12.145,0,0,1,4.68-2.28c2.17-.6,4.09-1.2,6.13-1.92a4.818,4.818,0,0,0,3.24-3.97,2.989,2.989,0,0,0-1.2-3.12c-1.08-.72-2.52-1.57-3.6-2.17a.927.927,0,0,1-.84-.96C397.028,143.946,397.028,142.866,397.028,141.306Z" transform="translate(592 234)" fill="#239e46"/>
        <path id="Path_22" data-name="Path 22" d="M393.178,156.686c0-3.37-.24-6.61-.24-9.97-.24-6.36-.36-12.85-.6-19.1q0-.96.84-.96c.72,0,1.93.24,2.89.24.6,0,.72.36.72.96-.12,4.68-.12,9.37-.36,13.93-.12,4.68-.12,9.25-.36,13.7,0,.36,0,.6-.6.84A3.131,3.131,0,0,0,393.178,156.686Z" transform="translate(592 234)"/>
        <path id="Path_23" data-name="Path 23" d="M395.708,161.366v1.33c-.24,4.08-.24,8.41-.36,12.49a10.332,10.332,0,0,1-.24,2.77c-.24.72-.96.96-1.33,1.56,0-1.44-.24-2.76-.24-3.97-.24-4.32-.24-8.53-.36-13.09a.643.643,0,0,1,.36-.48A11.679,11.679,0,0,1,395.708,161.366Z" transform="translate(592 234)"/>
        <path id="Path_24" data-name="Path 24" d="M396.308,171.1a4.76,4.76,0,0,1,3.24,4.44,5.629,5.629,0,0,1-1.2,2.41c-.96,1.08-2.04,2.04-3.24,3.24-.36.36-.84.84-1.21,1.2a3.89,3.89,0,0,0-.96,5.05,1.142,1.142,0,0,1,.24.84l-.24.12a.785.785,0,0,1-.36-.36,4.967,4.967,0,0,1,.6-6.61c.97-.96,1.93-1.92,2.89-2.76a8.968,8.968,0,0,0,1.32-1.56,1.68,1.68,0,0,0,0-2.29l-.12-.24C395.708,173.616,396.068,172.416,396.308,171.1Z" transform="translate(592 234)" fill="#239e46"/>
        <path id="Path_25" data-name="Path 25" d="M401.348,122.326a2,2,0,0,1,2.52.24l.13.24A1.81,1.81,0,0,1,401.348,122.326Z" transform="translate(592 234)" fill="#fff"/>
        <path id="Path_26" data-name="Path 26" d="M396.068,40.886v12.25a2.1,2.1,0,0,1,1.32,1.81,1.925,1.925,0,0,1-3.85,0,2.107,2.107,0,0,1,1.33-1.81V40.886c-1.69,2.16-7.57,9.37-11.3,10.57L389.1,67.2h12.37L407,51.456C403.628,50.256,397.628,43.046,396.068,40.886Z" transform="translate(592 234)" fill="#239e46"/>
      </g>
      <g id="المجلس_الصحي_العام" data-name="المجلس الصحي العام">
        <path id="Path_27" data-name="Path 27" d="M141.828,93.736a2.932,2.932,0,0,1,0,3.85,2.556,2.556,0,0,1-1.92.84,2.388,2.388,0,0,1-1.92-.84,2.932,2.932,0,0,1,0-3.85,2.388,2.388,0,0,1,1.92-.84,3.164,3.164,0,0,1,1.92.84Z" transform="translate(592 234)" fill="#ed1c24"/>
        <path id="Path_28" data-name="Path 28" d="M173.648,84.966a5.337,5.337,0,0,1-3.6,1.68,3.783,3.783,0,0,1-3.24-1.92,8.406,8.406,0,0,1-1.44-4.81,6.938,6.938,0,0,1,1.44-4.32,3.979,3.979,0,0,1,5.76-.61,3.787,3.787,0,0,1,1.08,2.53Zm17.9,3.24a4.563,4.563,0,0,0,1.2-3.12V59.256h-5.28v25.11a2.206,2.206,0,0,1-1.2,1.2h-6.61a1.524,1.524,0,0,1-.84-.48c-.12-.12-.12-.36-.12-.72v-6.85a7.983,7.983,0,0,0-2.76-6.25,11.234,11.234,0,0,0-5.89-1.68,9.4,9.4,0,0,0-9.73,9.13v1.2a20.48,20.48,0,0,0,.96,5.41h-8.77v-5.05a10.549,10.549,0,0,0-2.88-7.45,11.911,11.911,0,0,0-8.41-3.24,24.67,24.67,0,0,0-7.33,1.08v4.08a56.589,56.589,0,0,1,6.25-.96,7.636,7.636,0,0,1,5.05,1.81,6.158,6.158,0,0,1,1.92,4.68v3.85a.856.856,0,0,1-.84.96h-19.81V59.255h-5.29v25.11c0,.24-.12.6-.12.72a1.524,1.524,0,0,1-.84.48h-11.65V70.2h-5.29v14.17c0,.6-.24.96-.72.96h-8.41V72.475H89.1v11.65c0,.6-.24.96-.84.96h-8.41V74.755h-5.17v13.33a7.415,7.415,0,0,1-2.16,5.77,11.731,11.731,0,0,1-6.84,1.56,11.525,11.525,0,0,1-6.97-1.56,7.065,7.065,0,0,1-2.04-5.65v-9.25h-2.63L51.278,81v7.81a10.77,10.77,0,0,0,3.48,8.42,13.235,13.235,0,0,0,8.53,2.76h4.33a13.925,13.925,0,0,0,8.17-2.4,10.044,10.044,0,0,0,3.96-7.81h9.73a3.97,3.97,0,0,0,3.48-1.69h.24l1.32,1.69h9.13a3.855,3.855,0,0,0,3.49-1.69h.24l1.32,1.69h12.85a4.584,4.584,0,0,0,3.73-1.69l1.56,1.69h20.9a4.711,4.711,0,0,0,3.72-1.69l1.32,1.69h9.01l1.08-1.57a8.368,8.368,0,0,0,6.25,2.77,6.591,6.591,0,0,0,5.52-2.77,3.949,3.949,0,0,0,3.25,1.45h9.73a3.754,3.754,0,0,0,3.93-1.45Z" transform="translate(592 234)" fill="#ed1c24"/>
        <path id="Path_29" data-name="Path 29" d="M203.8,88.806l-2.76,2.17h-2.52V59.256h5.28Z" transform="translate(592 234)" fill="#ed1c24"/>
        <path id="Path_30" data-name="Path 30" d="M10.938,153.676a2.724,2.724,0,0,1,2.76,2.77,2.388,2.388,0,0,1-.84,1.92,2.388,2.388,0,0,1-1.92.84,2.716,2.716,0,0,1-2.76-2.76,2.556,2.556,0,0,1,.84-1.92A3.09,3.09,0,0,1,10.938,153.676Z" transform="translate(592 234)" fill="#ed1c24"/>
        <path id="Path_31" data-name="Path 31" d="M153.118,136.626a19.826,19.826,0,0,1,5.53-7.81,11.012,11.012,0,0,1,7.93-3.49,7.673,7.673,0,0,1,4.68,1.33,5.974,5.974,0,0,1,2.4,4.92v3.85c0,.6-.24.96-.84.96h-.24Zm-153.11-.97v4.2a10.838,10.838,0,0,0,3.48,8.42,13.131,13.131,0,0,0,8.65,2.76h4.33a12.693,12.693,0,0,0,7.68-2.16,9.674,9.674,0,0,0,4.33-8.05h85.86a4.53,4.53,0,0,0,3.73-1.69l1.44,1.69h54.52a4.686,4.686,0,0,0,3.73-1.69h.12l1.44,1.69h8.77a4.468,4.468,0,0,0,3.48-1.57,4.563,4.563,0,0,0,1.2-3.12v-25.71h-5.28v25.23a1.826,1.826,0,0,1-.48.72.855.855,0,0,1-.72.36h-7.57v-5.17a9.835,9.835,0,0,0-3.12-7.45,11.207,11.207,0,0,0-8.41-3.12,16.469,16.469,0,0,0-14.06,7.81V121.6h-5.04v15.14h-29.18v-5.17a10.464,10.464,0,0,0-2.76-7.45,12.034,12.034,0,0,0-8.41-3.36,24.626,24.626,0,0,0-7.33,1.2v4.09a36.386,36.386,0,0,1,6.25-.97,7.643,7.643,0,0,1,5.04,1.81,5.984,5.984,0,0,1,1.92,4.68v3.85a1.155,1.155,0,0,1-.84,1.2h-94.4v1.68l2.16,2.77h2.64a5.337,5.337,0,0,1-2.64,4.68,14.138,14.138,0,0,1-6.25,1.2,14.256,14.256,0,0,1-7.08-1.56,6.7,6.7,0,0,1-1.93-5.65v-5.88H2.518Z" transform="translate(592 234)" fill="#ed1c24"/>
        <path id="Path_32" data-name="Path 32" d="M17.418,153.676a2.626,2.626,0,0,1,2.64,2.77,2.291,2.291,0,0,1-.72,1.92,2.556,2.556,0,0,1-1.92.84,2.667,2.667,0,0,1-2.05-.84,2.725,2.725,0,0,1-.72-1.92,2.942,2.942,0,0,1,.72-1.92A3.9,3.9,0,0,1,17.418,153.676Z" transform="translate(592 234)" fill="#ed1c24"/>
        <path id="Path_33" data-name="Path 33" d="M203.8,140.106l-2.76,1.92h-2.52v-31.59h5.28Z" transform="translate(592 234)" fill="#ed1c24"/>
        <path id="Path_34" data-name="Path 34" d="M60.768,182.146a6.279,6.279,0,0,1,1.44-4.08,4.536,4.536,0,0,1,3.49-1.56,3.382,3.382,0,0,1,3.48,3.36v6.97a1.064,1.064,0,0,1-.72,1.2h-2.4a5.491,5.491,0,0,1-3.73-1.56A5.864,5.864,0,0,1,60.768,182.146Zm-7.2,7.21a5.93,5.93,0,0,0-1.32,3.37v15.62h2.52l2.77-2.16v-12.85c0-.6.12-.96.72-.96h11.17a4.19,4.19,0,0,0,2.88-1.2,4.014,4.014,0,0,0,1.56-3.49V180a7.711,7.711,0,0,0-1.92-5.17,9.17,9.17,0,0,0-6.61-2.76,9.7,9.7,0,0,0-6.84,2.52,8.641,8.641,0,0,0-3.13,7.45,10.982,10.982,0,0,0,1.81,6.01h-.6a3.98,3.98,0,0,0-3.01,1.31Z" transform="translate(592 234)" fill="#ed1c24"/>
        <path id="Path_35" data-name="Path 35" d="M162.728,179.866a5.915,5.915,0,0,1,2.65-2.52,7.173,7.173,0,0,1,6.24-.24,6.144,6.144,0,0,1,2.76,2.76,7.854,7.854,0,0,0-2.88,2.28,16.746,16.746,0,0,0-2.76,4.57h-.24a12.474,12.474,0,0,0-2.64-4.33A15.457,15.457,0,0,0,162.728,179.866Zm-78.18-18.13h-5.28v25.94a4.969,4.969,0,0,0,1.56,3.49,5.055,5.055,0,0,0,3.12,1.2h82.03a3.132,3.132,0,0,0,2.4-1.2h.12a3.074,3.074,0,0,0,2.16,1.2h17.41a4.929,4.929,0,0,0,3.48-1.56,5.1,5.1,0,0,0,1.2-3.13v-25.94h-5.28v25.1a1.524,1.524,0,0,1-.48.84,1.369,1.369,0,0,1-.72.36h-13.22a9.981,9.981,0,0,1,2.29-3.96,17.435,17.435,0,0,1,3.48-2.65l.6-1.2a12.953,12.953,0,0,0-4.81-6.25,10.954,10.954,0,0,0-6.12-1.68,13.385,13.385,0,0,0-6.25,1.56,11.694,11.694,0,0,0-5.4,6.13l.36,1.2a12.682,12.682,0,0,1,6.12,6.61H85.388a1.1,1.1,0,0,1-.85-.36,1.082,1.082,0,0,1-.12-.6l.13-25.1Z" transform="translate(592 234)" fill="#ed1c24"/>
        <path id="Path_36" data-name="Path 36" d="M203.8,191.276l-2.76,2.05h-2.52v-31.59h5.28Z" transform="translate(592 234)" fill="#ed1c24"/>
      </g>
      <g id="General_Health_Council" data-name="General Health Council">
        <path id="Path_37" data-name="Path 37" d="M556.628,80.516V96.5h-3.61l-.72-4.2a10.092,10.092,0,0,1-8.76,4.69A12.653,12.653,0,0,1,533.2,92.3c-2.4-2.64-3.36-6.13-3.36-10.21,0-4.92,1.56-8.65,4.57-11.53a13.129,13.129,0,0,1,9.73-3.73,13.836,13.836,0,0,1,9.13,2.89,10.8,10.8,0,0,1,3.48,6.61H551.1c-1.2-3.01-3.48-4.45-6.96-4.45-2.77,0-4.93.96-6.25,2.88a11.541,11.541,0,0,0-1.92,6.85,11.684,11.684,0,0,0,2.64,7.69,8.667,8.667,0,0,0,5.65,2.53,8.329,8.329,0,0,0,6.12-2.77,5.915,5.915,0,0,0,1.32-3.48h-6.6v-5.05h11.53v-.01Z" transform="translate(592 234)" fill="#ed1c24"/>
        <path id="Path_38" data-name="Path 38" d="M574.878,83.406c-.24-3.13-1.81-4.69-4.33-4.69s-3.84,1.56-4.2,4.69Zm5.88,3.72h-14.65a6.633,6.633,0,0,0,.84,3.61,3.864,3.864,0,0,0,3.6,1.8c2.16,0,3.61-.72,4.33-2.52h5.64a7.89,7.89,0,0,1-3.72,5.04,10.843,10.843,0,0,1-6.37,1.93,9.424,9.424,0,0,1-7.69-3.25,12.347,12.347,0,0,1-2.28-7.57c0-3.97.96-6.85,3.13-9.01a9.407,9.407,0,0,1,6.96-2.77,12.217,12.217,0,0,1,5.89,1.57,7.061,7.061,0,0,1,3.48,4.68,15.323,15.323,0,0,1,.84,5.53c0,.12,0,.48,0,.96Z" transform="translate(592 234)" fill="#ed1c24"/>
        <path id="Path_39" data-name="Path 39" d="M584.608,74.636h5.64v3.13a7.251,7.251,0,0,1,6.49-3.49,7.685,7.685,0,0,1,5.64,2.05,7.65,7.65,0,0,1,1.57,5.28v14.65H598.3V82.805c0-2.53-1.2-3.85-3.72-3.85a5.161,5.161,0,0,0-3.37,1.08,4.5,4.5,0,0,0-1.08,3.13v13.09h-5.64V74.635h.12Z" transform="translate(592 234)" fill="#ed1c24"/>
        <path id="Path_40" data-name="Path 40" d="M622.188,83.406c-.12-3.13-1.68-4.69-4.2-4.69-2.64,0-3.96,1.56-4.32,4.69Zm5.89,3.72h-14.65a6.633,6.633,0,0,0,.84,3.61,3.941,3.941,0,0,0,3.72,1.8c2.04,0,3.48-.72,4.2-2.52h5.65a7.89,7.89,0,0,1-3.72,5.04,10.865,10.865,0,0,1-6.37,1.93c-3.36,0-5.89-1.09-7.57-3.25a11.669,11.669,0,0,1-2.4-7.57c0-3.97.96-6.85,3.12-9.01a9.518,9.518,0,0,1,7.09-2.77,11.788,11.788,0,0,1,5.77,1.57,6.716,6.716,0,0,1,3.48,4.68,15.323,15.323,0,0,1,.84,5.53c0,.12,0,.48,0,.96Z" transform="translate(592 234)" fill="#ed1c24"/>
        <path id="Path_41" data-name="Path 41" d="M632.158,74.636h5.65v4.09c.72-3.12,2.76-4.69,6.01-4.69h1.2v5.65a5.958,5.958,0,0,0-2.16-.24,5.865,5.865,0,0,0-3.85,1.08c-.84.72-1.2,2.05-1.2,4.09v11.65h-5.65V74.636h0Z" transform="translate(592 234)" fill="#ed1c24"/>
        <path id="Path_42" data-name="Path 42" d="M659.418,85.926l-4.08.96a4.518,4.518,0,0,0-2.52,1.2,2.538,2.538,0,0,0-.85,1.93c0,1.56,1.09,2.28,3.13,2.28,3,0,4.56-1.56,4.56-4.81Zm6.85,9.01v1.32h-6.01a3.088,3.088,0,0,1-.6-2.16,8.254,8.254,0,0,1-6.6,2.77,7.078,7.078,0,0,1-5.17-1.93,6.552,6.552,0,0,1-1.56-4.32,6.267,6.267,0,0,1,3.36-5.89c.96-.6,2.76-.96,5.41-1.56l4.56-.72v-1.57c0-1.44-1.2-2.16-3.36-2.16a5.727,5.727,0,0,0-2.88.6,2.574,2.574,0,0,0-.97,2.28h-5.52c.36-5.04,3.36-7.33,9.13-7.33,3.36,0,5.52.48,7.09,1.69a6.167,6.167,0,0,1,1.92,4.92V92.9a1.509,1.509,0,0,0,1.2,2.04Z" transform="translate(592 234)" fill="#ed1c24"/>
        <rect id="Rectangle_2" data-name="Rectangle 2" width="5.76" height="29.28" transform="translate(1262.078 300.976)" fill="#ed1c24"/>
        <path id="Path_43" data-name="Path 43" d="M548.818,132.056h-11.77v13.33h-6.01v-29.31h6.01v10.94h11.53v-10.94h6.01v29.31h-6.01v-13.33Z" transform="translate(592 234)" fill="#ed1c24"/>
        <path id="Path_44" data-name="Path 44" d="M573.068,132.3c-.12-3.12-1.68-4.68-4.2-4.68s-3.96,1.56-4.32,4.68Zm5.89,3.72h-14.65a8.954,8.954,0,0,0,.84,3.72,4.1,4.1,0,0,0,3.72,1.69c2.16,0,3.48-.72,4.2-2.53h5.77a7.992,7.992,0,0,1-3.72,5.05,12.239,12.239,0,0,1-6.49,2.04,9.24,9.24,0,0,1-7.57-3.36,11.669,11.669,0,0,1-2.4-7.57c0-3.97,1.08-6.85,3.12-9.01a9.5,9.5,0,0,1,7.09-2.77,11.538,11.538,0,0,1,5.77,1.56,7.26,7.26,0,0,1,3.6,4.69,15.469,15.469,0,0,1,.72,5.53A.73.73,0,0,1,578.958,136.016Z" transform="translate(592 234)" fill="#ed1c24"/>
        <path id="Path_45" data-name="Path 45" d="M594.818,135.066l-4.21.96a4.165,4.165,0,0,0-2.52,1.2,2.534,2.534,0,0,0-.72,1.92c0,1.57.96,2.29,3.12,2.29,2.89,0,4.45-1.57,4.45-4.81Zm6.72,8.88v1.44h-6a3.837,3.837,0,0,1-.6-2.16,8.666,8.666,0,0,1-6.61,2.76,6.276,6.276,0,0,1-5.04-2.04,5.982,5.982,0,0,1-1.57-4.21,6.372,6.372,0,0,1,3.25-5.88,23.4,23.4,0,0,1,5.52-1.57l4.45-.72v-1.56c0-1.44-1.2-2.16-3.25-2.16a4.88,4.88,0,0,0-3,.6,2.432,2.432,0,0,0-.96,2.28h-5.41c.36-5.04,3.25-7.45,9.13-7.45,3.37,0,5.41.6,6.97,1.8a5.909,5.909,0,0,1,2.04,4.93v12.02A1.523,1.523,0,0,0,601.538,143.946Z" transform="translate(592 234)" fill="#ed1c24"/>
        <rect id="Rectangle_3" data-name="Rectangle 3" width="5.76" height="29.28" transform="translate(1197.397 350.056)" fill="#ed1c24"/>
        <path id="Path_46" data-name="Path 46" d="M626.878,123.766v3.61h-3.84v12.13a2.266,2.266,0,0,0,.36,1.57c.24.36.72.36,1.56.36a4.09,4.09,0,0,0,2.28-.72.235.235,0,0,0,.24-.24l.6,3.96a14.348,14.348,0,0,1-5.53,1.32c-3.6,0-5.4-1.8-5.4-5.04v-13.34h-2.76v-3.61h2.76v-3.6l5.64-3.25v6.85h4.09Z" transform="translate(592 234)" fill="#ed1c24"/>
        <path id="Path_47" data-name="Path 47" d="M631.918,116.076h5.65V126.9a7.328,7.328,0,0,1,6.49-3.61,6.813,6.813,0,0,1,4.8,1.8c1.56,1.21,2.4,3.13,2.4,5.89v14.54h-5.64v-13.46c0-2.52-1.2-3.84-3.49-3.84a4.115,4.115,0,0,0-4.32,4.32v12.98h-5.65v-29.44h-.24Z" transform="translate(592 234)" fill="#ed1c24"/>
        <path id="Path_48" data-name="Path 48" d="M555.428,174.936h-5.65c-.84-3.24-3-5.04-6.24-5.04a6.575,6.575,0,0,0-5.89,3.12,13.306,13.306,0,0,0-1.68,6.97c0,3.37.72,5.89,2.04,7.69a6.582,6.582,0,0,0,5.29,2.28,6.747,6.747,0,0,0,4.56-1.56,6.342,6.342,0,0,0,1.92-4.32h5.77a10.176,10.176,0,0,1-4.09,8.29,13.1,13.1,0,0,1-8.29,2.52,12.23,12.23,0,0,1-10.21-4.69c-2.16-2.76-3.12-6.12-3.12-10.57,0-4.81,1.44-8.77,4.09-11.53a13.079,13.079,0,0,1,9.37-3.48c4.56,0,8.04,1.56,10.33,4.57A14.661,14.661,0,0,1,555.428,174.936Z" transform="translate(592 234)" fill="#ed1c24"/>
        <path id="Path_49" data-name="Path 49" d="M568.988,176.866a3.972,3.972,0,0,0-3.6,2.04,7.163,7.163,0,0,0-1.44,4.81,7.656,7.656,0,0,0,1.56,5.04,4.5,4.5,0,0,0,3.48,1.57,4.056,4.056,0,0,0,3.72-1.93,7.8,7.8,0,0,0,1.45-4.8,8.208,8.208,0,0,0-1.57-5.17A4.6,4.6,0,0,0,568.988,176.866Zm0-4.45a10.42,10.42,0,0,1,8.29,3.49,11.948,11.948,0,0,1,2.52,7.81,11.4,11.4,0,0,1-3.36,8.65,10.773,10.773,0,0,1-7.45,2.52,10.5,10.5,0,0,1-8.17-3.36,11.878,11.878,0,0,1-2.52-7.93c0-3.73,1.2-6.73,3.36-8.65A10.854,10.854,0,0,1,568.988,172.416Z" transform="translate(592 234)" fill="#ed1c24"/>
        <path id="Path_50" data-name="Path 50" d="M603.108,194.4h-5.65v-3.12a7.285,7.285,0,0,1-6.37,3.6,7.584,7.584,0,0,1-5.64-2.16,7.723,7.723,0,0,1-1.56-5.29v-14.65h5.64v13.46c0,2.52,1.08,3.96,3.48,3.96a4.177,4.177,0,0,0,3.25-1.2,3.9,3.9,0,0,0,1.2-3.12v-13.1h5.65Z" transform="translate(592 234)" fill="#ed1c24"/>
        <path id="Path_51" data-name="Path 51" d="M608.628,172.776h5.65v3.13a7.414,7.414,0,0,1,6.36-3.49,7.592,7.592,0,0,1,5.65,2.16c1.2,1.33,1.56,3.13,1.56,5.29V194.4H622.2v-13.33c0-2.64-1.08-3.96-3.72-3.96a4.169,4.169,0,0,0-3.24,1.2,3.746,3.746,0,0,0-1.2,3.12V194.4h-5.65v-21.62Z" transform="translate(592 234)" fill="#ed1c24"/>
        <path id="Path_52" data-name="Path 52" d="M651.488,180.826h-5.28a5.839,5.839,0,0,0-1.44-2.88,3.39,3.39,0,0,0-2.53-.84,3.552,3.552,0,0,0-3.48,1.8,10.832,10.832,0,0,0-.96,5.05,8.136,8.136,0,0,0,1.2,4.8,3.676,3.676,0,0,0,3.24,1.81,2.742,2.742,0,0,0,2.53-.97,5.423,5.423,0,0,0,1.44-2.88h5.28a9.059,9.059,0,0,1-3.36,6.37,9.918,9.918,0,0,1-6.25,1.92c-3.48,0-6-1.08-7.8-3.24-1.57-1.93-2.29-4.57-2.29-7.81,0-3.97.96-6.85,3.13-9.01a9.8,9.8,0,0,1,7.2-2.64c2.89,0,5.17.72,6.73,2.52A9.267,9.267,0,0,1,651.488,180.826Z" transform="translate(592 234)" fill="#ed1c24"/>
        <path id="Path_53" data-name="Path 53" d="M658.218,165.456a2.537,2.537,0,0,1,2.04.72,2.942,2.942,0,0,1,.72,1.92,3.036,3.036,0,0,1-.72,2.05,2.537,2.537,0,0,1-2.04.72,2.431,2.431,0,0,1-1.92-.72,2.546,2.546,0,0,1-.72-2.05,2.478,2.478,0,0,1,2.64-2.64Zm2.76,7.32V194.4h-5.64v-21.62Z" transform="translate(592 234)" fill="#ed1c24"/>
        <rect id="Rectangle_4" data-name="Rectangle 4" width="5.76" height="29.28" transform="translate(1258.598 399.256)" fill="#ed1c24"/>
      </g>
    </g>
  </g>
</svg>
